<svg width="30" height="30" viewBox="0 0 30 30" fill="none" xmlns="http://www.w3.org/2000/svg">
<rect width="30" height="30" rx="15" fill="#F1F3FF"/>
<path fill-rule="evenodd" clip-rule="evenodd" d="M19.703 17.4201L18.5148 16.2294C18.1188 15.8325 17.3267 15.8325 16.9307 16.2294L16.1386 17.0232C14.718 16.8211 13.1683 15.2371 12.9703 13.848L13.7624 13.0542C14.1584 12.6573 14.1585 11.8635 13.7624 11.4666L12.5672 10.3215C12.1711 9.92457 11.3863 9.87893 10.9902 10.2759C10.1981 11.0697 10 11.6651 10 12.4589C10 13.6496 10.1982 15.0385 12.5744 17.4199C14.9507 19.8013 15.9405 20 17.5246 20C17.9304 20 18.9367 19.7756 19.7029 19.0077C20.099 18.6107 20.099 17.817 19.703 17.4201Z" fill="#5F6AC4"/>
</svg>
