<svg width="16" height="16" viewBox="0 0 16 16" fill="none" xmlns="http://www.w3.org/2000/svg">
<path fill-rule="evenodd" clip-rule="evenodd" d="M6.4 1.6C3.74903 1.6 1.6 3.74903 1.6 6.4C1.6 9.05097 3.74903 11.2 6.4 11.2C9.05097 11.2 11.2 9.05097 11.2 6.4C11.2 3.74903 9.05097 1.6 6.4 1.6ZM0 6.4C0 2.86538 2.86538 0 6.4 0C9.93462 0 12.8 2.86538 12.8 6.4C12.8 9.93462 9.93462 12.8 6.4 12.8C2.86538 12.8 0 9.93462 0 6.4Z" fill="white"/>
<path fill-rule="evenodd" clip-rule="evenodd" d="M9.83432 9.83432C10.1467 9.5219 10.6533 9.5219 10.9657 9.83432L15.7657 14.6343C16.0781 14.9467 16.0781 15.4533 15.7657 15.7657C15.4533 16.0781 14.9467 16.0781 14.6343 15.7657L9.83432 10.9657C9.5219 10.6533 9.5219 10.1467 9.83432 9.83432Z" fill="white"/>
</svg>
